<svg xmlns="http://www.w3.org/2000/svg" width="250" height="250" viewBox="0 0 250 250">
  <path fill="currentColor" fill-rule="evenodd" d="M50.1302083,108.072917 C70.9636458,148.437698 101.562302,179.036354 141.927083,199.869792 L172.526042,169.270833 C176.866354,164.930531 181.640625,163.845479 186.848958,166.015625 C202.474063,171.22399 218.966875,173.828125 236.328125,173.828125 C240.234375,173.828125 243.489583,175.130198 246.09375,177.734375 C248.697917,180.338552 250,183.593729 250,187.5 L250,236.328125 C250,240.234395 248.697917,243.48957 246.09375,246.09375 C243.489583,248.69793 240.234375,250 236.328125,250 C171.223646,250 115.560104,226.88825 69.3359375,180.664062 C23.11175,134.439896 0,78.7763542 0,13.671875 C0,9.765625 1.30206979,6.51041667 3.90625,3.90625 C6.51043021,1.30208333 9.76560521,0 13.671875,0 L62.5,0 C66.4062708,0 69.6614479,1.30208333 72.265625,3.90625 C74.8698021,6.51041667 76.171875,9.765625 76.171875,13.671875 C76.171875,31.033125 78.7760104,47.5259375 83.984375,63.1510417 C85.7204896,68.7934375 84.6354375,73.5677083 80.7291667,77.4739583 L50.1302083,108.072917 Z"/>
</svg>
