<svg xmlns="http://www.w3.org/2000/svg" width="165" height="180" viewBox="0 0 165 180">
  <path fill="#464F6B" d="M558,151.804348 L512,151.804348 L512,196.804348 L558,196.804348 L558,151.804348 Z M549.166667,53 L549.166667,71 L475.833333,71 L475.833333,53 L457.5,53 L457.5,71 L448.333333,71 C438.158333,71 430.091667,79.1 430.091667,89 L430,215 C430,224.9 438.158333,233 448.333333,233 L576.666667,233 C586.75,233 595,224.9 595,215 L595,89 C595,79.1 586.75,71 576.666667,71 L567.5,71 L567.5,53 L549.166667,53 Z M577,215.391304 L449,215.391304 L449,116.586957 L577,116.586957 L577,215.391304 Z" transform="translate(-430 -53)"/>
</svg>
