<svg xmlns="http://www.w3.org/2000/svg" width="165" height="180" viewBox="0 0 165 180">
  <path fill="#0B132B" d="M152,106.804348 L106,106.804348 L106,151.804348 L152,151.804348 L152,106.804348 Z M143.166667,8 L143.166667,26 L69.8333333,26 L69.8333333,8 L51.5,8 L51.5,26 L42.3333333,26 C32.1583333,26 24.0916667,34.1 24.0916667,44 L24,170 C24,179.9 32.1583333,188 42.3333333,188 L170.666667,188 C180.75,188 189,179.9 189,170 L189,44 C189,34.1 180.75,26 170.666667,26 L161.5,26 L161.5,8 L143.166667,8 Z M171,170.391304 L43,170.391304 L43,71.5869565 L171,71.5869565 L171,170.391304 Z" transform="translate(-24 -8)"/>
</svg>
