<svg xmlns="http://www.w3.org/2000/svg" width="151" height="151" viewBox="0 0 151 151">
  <g fill="currentColor">
    <path d="M75.4245,0 C33.7485,0 0,33.824 0,75.5 C0,117.176 33.7485,151 75.4245,151 C117.176,151 151,117.176 151,75.5 C151,33.824 117.176,0 75.4245,0 Z M75.5,135.9 C42.129,135.9 15.1,108.871 15.1,75.5 C15.1,42.129 42.129,15.1 75.5,15.1 C108.871,15.1 135.9,42.129 135.9,75.5 C135.9,108.871 108.871,135.9 75.5,135.9 Z"/>
    <polygon points="79.25 38 68 38 68 83.246 107.375 107 113 97.725 79.25 77.59"/>
  </g>
</svg>
