<svg xmlns="http://www.w3.org/2000/svg" width="201" height="201" viewBox="0 0 201 201">
  <g fill="none" fill-rule="evenodd">
    <path fill="#FFF" fill-rule="nonzero" d="M180.875,40 L170.8125,40 L170.8125,120.5 C170.8125,126.034375 166.284375,130.5625 160.75,130.5625 L40,130.5625 L40,140.625 C40,151.69375 49.05625,160.75 60.125,160.75 L160.75,160.75 L201,201 L201,60.125 C201,49.05625 191.94375,40 180.875,40 Z"/>
    <path fill="#FFF" fill-rule="nonzero" d="M151,90.6 L151,20.1333333 C151,9.06 141.94,0 130.866667,0 L20.1333333,0 C9.06,0 0,9.06 0,20.1333333 L0,151 L40.2666667,110.733333 L130.866667,110.733333 C141.94,110.733333 151,101.673333 151,90.6 Z"/>
    <polygon fill="#121923" points="63.705 87.336 34.343 57.996 45.778 46.598 63.705 64.541 108.907 19.336 120.343 30.734"/>
  </g>
</svg>
