<svg xmlns="http://www.w3.org/2000/svg" width="178" height="178" viewBox="0 0 178 178">
  <path fill="#121923" d="M127.215552,111.949686 L119.175529,111.949686 L116.325901,109.20183 C126.2996,97.5997713 132.304174,82.53745 132.304174,66.1520869 C132.304174,29.6157804 102.688393,0 66.1520869,0 C29.6157804,0 0,29.6157804 0,66.1520869 C0,102.688393 29.6157804,132.304174 66.1520869,132.304174 C82.53745,132.304174 97.5997713,126.2996 109.20183,116.325901 L111.949686,119.175529 L111.949686,127.215552 L162.835906,178 L178,162.835906 L127.215552,111.949686 Z M66.1520869,111.949686 C40.810749,111.949686 20.3544883,91.4934248 20.3544883,66.1520869 C20.3544883,40.810749 40.810749,20.3544883 66.1520869,20.3544883 C91.4934248,20.3544883 111.949686,40.810749 111.949686,66.1520869 C111.949686,91.4934248 91.4934248,111.949686 66.1520869,111.949686 Z"/>
</svg>
