<svg xmlns="http://www.w3.org/2000/svg" width="136" height="150" viewBox="0 0 136 150">
  <path fill="#FFF" d="M132.222222,30 C112.502222,35.25 89.3822222,37.5 68,37.5 C46.6177778,37.5 23.4977778,35.25 3.77777778,30 L0,45 C14.0533333,48.75 30.2222222,51.225 45.3333333,52.5 L45.3333333,150 L60.4444444,150 L60.4444444,105 L75.5555556,105 L75.5555556,150 L90.6666667,150 L90.6666667,52.5 C105.777778,51.225 121.946667,48.75 136,45 L132.222222,30 Z M68,30 C76.3111111,30 83.1111111,23.25 83.1111111,15 C83.1111111,6.75 76.3111111,0 68,0 C59.6888889,0 52.8888889,6.75 52.8888889,15 C52.8888889,23.25 59.6888889,30 68,30 Z"/>
</svg>
