<svg xmlns="http://www.w3.org/2000/svg" width="145" height="145" viewBox="0 0 145 145">
  <path fill="#121923" fill-rule="evenodd" d="M29.0755208,62.6822917 C41.1589146,86.0938648 58.9061352,103.841085 82.3177083,115.924479 L100.065104,98.1770833 C102.582485,95.6597081 105.351562,95.0303779 108.372396,96.2890625 C117.434956,99.309914 127.000788,100.820312 137.070312,100.820312 C139.335938,100.820312 141.223958,101.575515 142.734375,103.085938 C144.244792,104.59636 145,106.484363 145,108.75 L145,137.070312 C145,139.335949 144.244792,141.22395 142.734375,142.734375 C141.223958,144.2448 139.335938,145 137.070312,145 C99.3097146,145 67.0248604,131.595185 40.2148438,104.785156 C13.404815,77.9751396 0,45.6902854 0,7.9296875 C0,5.6640625 0.755200479,3.77604167 2.265625,2.265625 C3.77604952,0.755208333 5.66405102,0 7.9296875,0 L36.25,0 C38.5156371,0 40.4036398,0.755208333 41.9140625,2.265625 C43.4244852,3.77604167 44.1796875,5.6640625 44.1796875,7.9296875 C44.1796875,17.9992125 45.690086,27.5650437 48.7109375,36.6276042 C49.717884,39.9001937 49.0885538,42.6692708 46.8229167,44.9348958 L29.0755208,62.6822917 Z"/>
</svg>
