<svg xmlns="http://www.w3.org/2000/svg" width="178" height="178" viewBox="0 0 178 178">
  <path fill="#121923" d="M174.928604,0 L142.06467,0 C140.368385,0 138.993274,1.37402266 138.993274,3.06896552 L138.993274,12.552069 C138.993274,14.2470118 140.368385,15.6210345 142.06467,15.6210345 L151.278857,15.6210345 L136.966153,29.9224138 C128.359894,23.6650218 118.001318,20.2721584 107.357897,20.2244828 C90.9114971,20.180728 75.4925564,28.211047 66.1090524,41.7072414 C61.0662162,40.034587 55.7890446,39.1747468 50.475648,39.16 C24.1199201,39.1704953 2.20533336,59.4337725 0.155044412,85.6888417 C-1.89524454,111.943911 16.6084861,135.358509 42.6435888,139.453793 L42.6435888,148.138966 L31.3715663,148.138966 C29.6752813,148.138966 28.3001706,149.512988 28.3001706,151.207931 L28.3001706,160.691034 C28.3001706,162.385977 29.6752813,163.76 31.3715663,163.76 L42.520733,163.76 L42.520733,174.931034 C42.520733,176.625977 43.8958437,178 45.5921287,178 L55.1441695,178 C56.8404546,178 58.2155653,176.625977 58.2155653,174.931034 L58.2155653,163.79069 L69.3647319,163.79069 C71.0610169,163.79069 72.4361277,162.416667 72.4361277,160.721724 L72.4361277,151.238621 C72.4361277,149.543678 71.0610169,148.169655 69.3647319,148.169655 L58.2155653,148.169655 L58.2155653,139.484483 C71.7575806,137.406986 83.8507372,129.861679 91.6630651,118.615517 C112.476683,125.417251 135.30516,118.029489 148.176066,100.326754 C161.046972,82.624019 161.022433,58.6470843 148.115319,40.9706897 L162.428023,26.6386207 L162.428023,35.8455172 C162.428023,37.5404601 163.803134,38.9144828 165.499419,38.9144828 L174.928604,38.9144828 C176.624889,38.9144828 178,37.5404601 178,35.8455172 L178,3.06896552 C178,1.37402266 176.624889,0 174.928604,0 Z M84.3838572,96.9793103 C76.7326386,90.3433417 72.3491982,80.7096436 72.3745891,70.5862069 C72.3873037,68.1186367 72.6653263,65.6595687 73.2039766,63.2513793 C80.8308607,69.8662984 85.2118881,79.4611058 85.213134,89.5524138 C85.2071723,92.0507758 84.9291096,94.5410696 84.3838572,96.9793103 L84.3838572,96.9793103 Z M50.3527921,124.6 C37.6461142,124.976827 25.7398854,118.418464 19.2751786,107.481375 C12.8104719,96.544285 12.8104719,82.9595081 19.2751786,72.0224184 C25.7398854,61.0853286 37.6461142,54.5269657 50.3527921,54.9037931 C53.2751925,54.9022926 56.1858301,55.2735694 59.0141282,56.0086207 C52.5911369,76.548563 60.0080674,98.8929145 77.4425028,111.526207 C70.8374302,119.714642 60.878175,124.475957 50.3527921,124.477241 L50.3527921,124.6 Z M107.357897,105.511034 C104.402622,105.491357 101.461614,105.099532 98.6044196,104.344828 C104.967987,83.8054411 97.5625027,61.4955721 80.176045,48.8272414 C90.3670707,36.2335062 107.905315,32.3286031 122.483401,39.4074768 C137.061488,46.4863506 144.825836,62.6777669 141.213271,78.4658924 C137.600707,94.2540178 123.566178,105.465408 107.357897,105.511034 L107.357897,105.511034 Z"/>
</svg>
