<svg xmlns="http://www.w3.org/2000/svg" width="156" height="156" viewBox="0 0 156 156">
  <path fill="currentColor" d="M78,0 C34.944,0 0,34.944 0,78 C0,121.056 34.944,156 78,156 C121.056,156 156,121.056 156,78 C156,34.944 121.056,0 78,0 Z M136.188,55.536 L114.504,64.506 C110.526,53.898 102.18,45.474 91.494,41.574 L100.464,19.89 C116.844,26.13 129.87,39.156 136.188,55.536 Z M78,101.4 C65.052,101.4 54.6,90.948 54.6,78 C54.6,65.052 65.052,54.6 78,54.6 C90.948,54.6 101.4,65.052 101.4,78 C101.4,90.948 90.948,101.4 78,101.4 Z M55.614,19.812 L64.74,41.496 C53.976,45.396 45.474,53.898 41.496,64.662 L19.812,55.614 C26.13,39.156 39.156,26.13 55.614,19.812 Z M19.812,100.386 L41.496,91.416 C45.474,102.18 53.898,110.604 64.662,114.504 L55.536,136.188 C39.156,129.87 26.13,116.844 19.812,100.386 Z M100.464,136.188 L91.494,114.504 C102.18,110.526 110.604,102.102 114.504,91.338 L136.188,100.464 C129.87,116.844 116.844,129.87 100.464,136.188 Z"/>
</svg>
