<svg xmlns="http://www.w3.org/2000/svg" width="146" height="146" viewBox="0 0 146 146">
  <path fill="currentColor" d="M104.086626,42.7653189 C95.5204288,34.279283 84.3184786,30 73.043313,30 L73.043313,73.5181326 L42,104.270946 C59.1323945,121.243018 86.9542316,121.243018 104.159841,104.270946 C121.292236,87.2988745 121.292236,59.7373906 104.086626,42.7653189 Z M73,0 C32.704,0 0,32.704 0,73 C0,113.296 32.704,146 73,146 C113.296,146 146,113.296 146,73 C146,32.704 113.296,0 73,0 Z M73.5,132 C41.17875,132 15,105.82125 15,73.5 C15,41.17875 41.17875,15 73.5,15 C105.82125,15 132,41.17875 132,73.5 C132,105.82125 105.82125,132 73.5,132 Z"/>
</svg>
