<svg xmlns="http://www.w3.org/2000/svg" xmlns:xlink="http://www.w3.org/1999/xlink" width="260" height="260" viewBox="0 0 260 260">
  <defs>
    <path id="icon-phone.inline-b" d="M55.1302083,113.072917 C75.9636458,153.437698 106.562302,184.036354 146.927083,204.869792 L177.526042,174.270833 C181.866354,169.930531 186.640625,168.845479 191.848958,171.015625 C207.474063,176.22399 223.966875,178.828125 241.328125,178.828125 C245.234375,178.828125 248.489583,180.130198 251.09375,182.734375 C253.697917,185.338552 255,188.593729 255,192.5 L255,241.328125 C255,245.234395 253.697917,248.48957 251.09375,251.09375 C248.489583,253.69793 245.234375,255 241.328125,255 C176.223646,255 120.560104,231.88825 74.3359375,185.664062 C28.11175,139.439896 5,83.7763542 5,18.671875 C5,14.765625 6.30206979,11.5104167 8.90625,8.90625 C11.5104302,6.30208333 14.7656052,5 18.671875,5 L67.5,5 C71.4062708,5 74.6614479,6.30208333 77.265625,8.90625 C79.8698021,11.5104167 81.171875,14.765625 81.171875,18.671875 C81.171875,36.033125 83.7760104,52.5259375 88.984375,68.1510417 C90.7204896,73.7934375 89.6354375,78.5677083 85.7291667,82.4739583 L55.1302083,113.072917 Z"/>
    <filter id="icon-phone.inline-a" width="106%" height="106%" x="-3%" y="-3%" filterUnits="objectBoundingBox">
      <feOffset in="SourceAlpha" result="shadowOffsetOuter1"/>
      <feGaussianBlur in="shadowOffsetOuter1" result="shadowBlurOuter1" stdDeviation="2.5"/>
      <feColorMatrix in="shadowBlurOuter1" values="0 0 0 0 0   0 0 0 0 0   0 0 0 0 0  0 0 0 0.152917395 0"/>
    </filter>
  </defs>
  <g fill="none" fill-rule="evenodd">
    <use fill="#000" filter="url(#icon-phone.inline-a)" xlink:href="#icon-phone.inline-b"/>
    <use fill="#E01685" xlink:href="#icon-phone.inline-b"/>
  </g>
</svg>
