<svg xmlns="http://www.w3.org/2000/svg" width="165" height="180" viewBox="0 0 165 180">
  <path fill="#636A80" d="M128,98.8043478 L82,98.8043478 L82,143.804348 L128,143.804348 L128,98.8043478 Z M119.166667,0 L119.166667,18 L45.8333333,18 L45.8333333,0 L27.5,0 L27.5,18 L18.3333333,18 C8.15833333,18 0.0916666667,26.1 0.0916666667,36 L0,162 C0,171.9 8.15833333,180 18.3333333,180 L146.666667,180 C156.75,180 165,171.9 165,162 L165,36 C165,26.1 156.75,18 146.666667,18 L137.5,18 L137.5,0 L119.166667,0 Z M147,162.391304 L19,162.391304 L19,63.5869565 L147,63.5869565 L147,162.391304 Z"/>
</svg>
