<svg xmlns="http://www.w3.org/2000/svg" width="149" height="149" viewBox="0 0 149 149">
  <path fill="currentColor" d="M89.4255,15 C48.3015,15 15,48.376 15,89.5 C15,130.624 48.3015,164 89.4255,164 C130.624,164 164,130.624 164,89.5 C164,48.376 130.624,15 89.4255,15 Z M141.054,59.7 L119.0765,59.7 C116.6925,50.3875 113.2655,41.4475 108.7955,33.178 C122.5035,37.8715 133.902,47.4075 141.054,59.7 Z M89.5,30.198 C95.6835,39.138 100.526,49.0465 103.7295,59.7 L75.2705,59.7 C78.474,49.0465 83.3165,39.138 89.5,30.198 Z M31.837,104.4 C30.645,99.632 29.9,94.6405 29.9,89.5 C29.9,84.3595 30.645,79.368 31.837,74.6 L57.018,74.6 C56.422,79.517 55.975,84.434 55.975,89.5 C55.975,94.566 56.422,99.483 57.018,104.4 L31.837,104.4 Z M37.946,119.3 L59.9235,119.3 C62.3075,128.6125 65.7345,137.5525 70.2045,145.822 C56.4965,141.1285 45.098,131.667 37.946,119.3 L37.946,119.3 Z M59.9235,59.7 L37.946,59.7 C45.098,47.333 56.4965,37.8715 70.2045,33.178 C65.7345,41.4475 62.3075,50.3875 59.9235,59.7 L59.9235,59.7 Z M89.5,148.802 C83.3165,139.862 78.474,129.9535 75.2705,119.3 L103.7295,119.3 C100.526,129.9535 95.6835,139.862 89.5,148.802 Z M106.933,104.4 L72.067,104.4 C71.3965,99.483 70.875,94.566 70.875,89.5 C70.875,84.434 71.3965,79.4425 72.067,74.6 L106.933,74.6 C107.6035,79.4425 108.125,84.434 108.125,89.5 C108.125,94.566 107.6035,99.483 106.933,104.4 Z M108.7955,145.822 C113.2655,137.5525 116.6925,128.6125 119.0765,119.3 L141.054,119.3 C133.902,131.5925 122.5035,141.1285 108.7955,145.822 L108.7955,145.822 Z M121.982,104.4 C122.578,99.483 123.025,94.566 123.025,89.5 C123.025,84.434 122.578,79.517 121.982,74.6 L147.163,74.6 C148.355,79.368 149.1,84.3595 149.1,89.5 C149.1,94.6405 148.355,99.632 147.163,104.4 L121.982,104.4 Z" transform="translate(-15 -15)"/>
</svg>
