<svg xmlns="http://www.w3.org/2000/svg" width="136" height="151" viewBox="0 0 136 151">
  <path fill="#6FFFE9" d="M0,33.5555556 L136,33.5555556 L136,50.3333333 L0,50.3333333 L0,33.5555556 Z M0,83.8888889 L136,83.8888889 L136,67.1111111 L0,67.1111111 L0,83.8888889 Z M0,117.444444 L59.5,117.444444 L59.5,100.666667 L0,100.666667 L0,117.444444 Z M0,151 L59.5,151 L59.5,134.222222 L0,134.222222 L0,151 Z M96.985,127.259444 L85,115.347222 L73.015,127.175556 L96.985,151 L136,112.578889 L123.93,100.666667 L96.985,127.259444 Z M0,0 L0,16.7777778 L136,16.7777778 L136,0 L0,0 Z"/>
</svg>
