<svg xmlns="http://www.w3.org/2000/svg" width="154" height="149" viewBox="0 0 154 149">
  <path fill="#FFF" d="M43.8103448,1.75400556 C48.0187931,-1.34072088 53.5415517,0.757848976 57.9225862,4.83544991 C58.0749931,4.97770107 58.3760432,5.27341612 58.8061559,5.7023083 L59.2059744,6.1020718 C62.1478085,9.05019038 69.3253569,16.3682535 76.804181,23.9799191 L77.9003371,25.0954441 C86.6794841,34.0288412 95.6085103,43.0921128 98.3741379,45.7442801 C98.3741379,45.7442801 101.546968,49.1147452 105.488535,53.1179743 C85.7760992,75.3383152 98.3741379,101.117304 98.3741379,101.130586 C100.421034,106.224629 102.221373,105.44784 102.3496,105.38461 C104.481034,104.809724 102.861379,101.369663 102.861379,101.369663 C90.6316552,74.7640479 107.969501,57.2535438 108.667907,56.5637659 L108.689483,56.5426174 L105.554606,53.1850647 C106.169296,53.8091123 106.802277,54.4481128 107.444489,55.0917497 L107.988993,55.6363369 C108.262141,55.9089515 108.536481,56.181875 108.81133,56.4543301 L109.361504,56.998385 C112.29723,59.8942229 115.2391,62.677787 117.358621,64.4056133 C119.296897,65.9861818 122.191034,63.3563284 121.142241,61.0850914 L121.142241,61.0850914 L113.721034,40.736933 C110.826897,31.5590104 113.336034,22.9522176 121.540517,17.0549706 C124.381552,15.0095291 128.244828,16.1119424 129.293621,19.2863613 C129.293621,19.2863613 134.772358,33.5630078 140.51683,49.035547 L140.904441,50.0803028 L140.904441,50.0803028 L141.486591,51.6522822 L141.486591,51.6522822 L141.874662,52.7022001 C142.13327,53.4024131 142.391586,54.1029635 142.649138,54.8026639 L142.641874,54.7823116 L142.637664,54.7676053 C142.664116,54.83793 142.982467,55.6853146 143.633622,57.4632177 L143.724483,57.7114411 C145.476897,62.5062748 147.162931,67.1682876 148.623276,71.325581 C149.141034,72.7998928 149.725172,74.4335896 150.335862,76.1469789 L150.335862,76.1469789 C150.368609,76.2162819 150.604034,76.7154522 151.012931,77.6080085 C151.46431,78.5643188 152.035172,80.0120664 152.566207,81.9512512 C153.030862,83.890436 153.601724,86.3210581 153.628276,89.1634248 C153.747759,92.0057916 153.535345,95.2599031 152.765345,98.6999638 C152.035172,102.153307 150.827069,105.805881 149.101207,109.445173 C147.375345,113.084465 145.211379,116.737039 142.662414,120.270074 C140.100172,123.789828 137.192759,127.229888 133.966724,130.444153 C132.360345,132.051286 130.687586,133.631855 128.895345,135.13273 L128.895345,135.13273 L126.319828,137.257864 C125.430345,138.028226 124.474483,138.745458 123.531897,139.462691 C119.695172,142.265212 115.473448,144.695834 110.946379,146.369377 C106.41931,148.029638 101.626724,148.919537 97.0067241,148.866409 C92.3867241,148.866409 88.0056897,147.949945 84.1291379,146.621736 C80.2393103,145.293528 76.907069,143.394189 73.9465517,141.601107 C63.2594828,135.13273 45.6025862,117.945709 45.6025862,117.945709 L45.4261597,117.769884 C43.7149742,116.043895 34.3754695,106.236695 24.9761098,96.3243405 L23.7764495,95.0589768 C17.5825512,88.5246638 11.5027231,82.0922594 7.70866234,78.0504151 L7.00345354,77.2985882 C5.20212,75.3765965 4.04701379,74.130758 3.83672414,73.8757419 C-2.23034483,66.4909011 1.03551724,61.9085808 3.04017241,59.8498572 C7.84603448,54.8956385 12.6518966,57.4590815 14.8955172,59.0927782 C15.6602069,59.6538136 21.7104314,65.9374099 27.7958929,72.3206461 L28.5563793,73.1186629 C34.8889655,79.7663478 41.0224138,86.2679297 41.0224138,86.2679297 C41.0224138,86.2679297 42.4960345,87.9016265 43.9563793,86.5335715 C45.337069,85.245209 44.1024138,83.7841793 44.1024138,83.7841793 L44.1024138,83.7841793 L6.19982759,43.6988386 C1.68603448,39.2626213 2.32327586,32.9801938 6.25293103,29.380748 C10.5675862,25.4226859 15.9310345,27.3485886 19.927069,31.4129074 C20.8140293,32.3138314 29.3874828,41.2399562 37.9921173,50.215241 L39.0041095,51.2709026 C46.9252749,59.5344927 54.6179586,67.5741882 56.0905172,69.1473186 C57.481485,70.6383401 58.5820001,69.6419209 58.7290809,69.4962709 L58.7456897,69.4793708 C59.8874138,68.4300859 59.29,67.3143905 58.52,66.477619 C54.4867931,62.1171096 48.3377789,55.5568209 41.9900316,48.8069801 L40.9002573,47.6483828 L40.9002573,47.6483828 L39.8087357,46.4883223 C28.7099903,34.6945633 17.6730931,23.0228783 16.847069,22.115446 C12.5987931,17.413587 12.5058621,11.4233654 16.3956897,7.77079129 C20.3784483,4.02524256 27.0960345,5.02139913 31.277931,9.56387313 C32.1452431,10.5002603 41.6345107,20.4205959 51.4495064,30.6731204 L53.9574265,33.2926712 C64.1852365,43.9750901 73.9996552,54.2182521 73.9996552,54.2182521 C76.1105172,56.1707189 78.3674138,53.3283522 76.4556897,51.3227569 C76.4556897,51.3227569 68.8852621,43.3203522 60.88722,34.837742 L59.8857543,33.7754588 L59.8857543,33.7754588 L58.3819855,32.1797968 C50.5392288,23.8558697 42.9998534,15.8227913 42.4694828,15.14235 C38.3141379,9.80295071 39.5089655,4.91514243 43.8103448,1.75400556 Z"/>
</svg>
