<svg xmlns="http://www.w3.org/2000/svg" width="146" height="146" viewBox="0 0 146 146">
  <path fill="#56648F" d="M120.086626,42.7653189 C111.520429,34.279283 100.318479,30 89.043313,30 L89.043313,73.5181326 L58,104.270946 C75.1323945,121.243018 102.954232,121.243018 120.159841,104.270946 C137.292236,87.2988745 137.292236,59.7373906 120.086626,42.7653189 Z M89,0 C48.704,0 16,32.704 16,73 C16,113.296 48.704,146 89,146 C129.296,146 162,113.296 162,73 C162,32.704 129.296,0 89,0 Z M89.5,132 C57.17875,132 31,105.82125 31,73.5 C31,41.17875 57.17875,15 89.5,15 C121.82125,15 148,41.17875 148,73.5 C148,105.82125 121.82125,132 89.5,132 Z" transform="translate(-16)"/>
</svg>
