<svg xmlns="http://www.w3.org/2000/svg" width="178" height="178" viewBox="0 0 178 178">
  <path fill="#BEEDFF" d="M157.215552,141.949686 L149.175529,141.949686 L146.325901,139.20183 C156.2996,127.599771 162.304174,112.53745 162.304174,96.1520869 C162.304174,72.5881874 149.985379,51.9029066 131.436181,40.1846367 C121.22447,33.7334903 109.124494,30 96.1520869,30 C59.6157804,30 30,59.6157804 30,96.1520869 C30,132.688393 59.6157804,162.304174 96.1520869,162.304174 C112.53745,162.304174 127.599771,156.2996 139.20183,146.325901 L141.949686,149.175529 L141.949686,157.215552 L192.835906,208 L208,192.835906 L157.215552,141.949686 Z M96.1520869,141.949686 C70.810749,141.949686 50.3544883,121.493425 50.3544883,96.1520869 C50.3544883,70.810749 70.810749,50.3544883 96.1520869,50.3544883 C121.493425,50.3544883 141.949686,70.810749 141.949686,96.1520869 C141.949686,121.493425 121.493425,141.949686 96.1520869,141.949686 Z" transform="translate(-30 -30)"/>
</svg>
