<svg xmlns="http://www.w3.org/2000/svg" width="153" height="153" viewBox="0 0 153 153">
  <path fill="currentColor" d="M130.514071,22.471875 C116.639775,8.60625 97.5984991,0 76.4521576,0 C34.1594747,0 0,34.23375 0,76.5 C0,118.76625 34.1594747,153 76.4521576,153 C112.142589,153 141.900563,128.615625 150.41651,95.625 L130.514071,95.625 C122.667917,117.905625 101.425891,133.875 76.4521576,133.875 C44.7804878,133.875 19.0412758,108.151875 19.0412758,76.5 C19.0412758,44.848125 44.7804878,19.125 76.4521576,19.125 C92.3358349,19.125 106.497186,25.723125 116.831144,36.14625 L86.0206379,66.9375 L153,66.9375 L153,0 L130.514071,22.471875 Z"/>
</svg>
