<svg xmlns="http://www.w3.org/2000/svg" xmlns:xlink="http://www.w3.org/1999/xlink" width="130" height="92" viewBox="0 0 130 92">
  <defs>
    <filter id="illustration-support.inline-a" width="110.2%" height="114.4%" x="-5.1%" y="-7.2%" filterUnits="objectBoundingBox">
      <feOffset dy="-1" in="SourceAlpha" result="shadowOffsetOuter1"/>
      <feGaussianBlur in="shadowOffsetOuter1" result="shadowBlurOuter1" stdDeviation="1"/>
      <feColorMatrix in="shadowBlurOuter1" result="shadowMatrixOuter1" values="0 0 0 0 0   0 0 0 0 0   0 0 0 0 0  0 0 0 0.212713068 0"/>
      <feMerge>
        <feMergeNode in="shadowMatrixOuter1"/>
        <feMergeNode in="SourceGraphic"/>
      </feMerge>
    </filter>
    <rect id="illustration-support.inline-b" width="127" height="90" x="0" y="0"/>
  </defs>
  <g fill="none" fill-rule="evenodd" filter="url(#illustration-support.inline-a)" transform="translate(1.478 1.132)">
    <mask id="illustration-support.inline-c" fill="#fff">
      <use xlink:href="#illustration-support.inline-b"/>
    </mask>
    <g fill-rule="nonzero" mask="url(#illustration-support.inline-c)">
      <g transform="translate(1 2)">
        <path fill="#FAC036" d="M46.8647088 54.599C46.3187088 54.175 41.9877088 50.899 29.9717088 50.102 29.3107088 50.047 28.6447088 49.578 28.0577088 49.185 27.3107088 48.688 26.5347088 48.166 25.9687088 47.493 25.0487088 46.395 24.0097088 45.471 23.1367088 44.252 17.2947088 36.108 11.5697088 34.473 10.7137088 34.15 9.57370878 33.6 5.20670878 34.277 7.30470878 37.189 7.43770878 37.211 13.9847088 46.408 14.4097088 47.143 15.1617088 48.441 16.0127088 48.972 16.8117088 49.883 17.5417088 50.715 18.3497088 51.48 19.0957088 52.298 19.0957088 52.298 14.9087088 49.819 13.9057088 48.733 13.4587088 48.246 13.2437088 47.549 12.8877088 46.971 12.4757088 46.305 12.0377088 45.656 11.5907088 45.014 11.0307088 44.213 10.4677088 43.414 9.87370878 42.639 9.11570878 41.652 8.32870878 40.686 7.54770878 39.716 7.06170878 39.112 6.51270878 38.529 6.11170878 37.898 4.13170878 34.77 6.39270878 32.899 8.54470878 32.663 8.44070878 32.303 7.45070878 22.844 7.27770878 21.256 6.78370878 16.696 6.29570878 13.318 3.68170878 12.399 3.00770878 12.161 2.53170878 12.241 2.02970878 12.771 1.43570878 13.395 1.08170878 16.707.910708784 18.801.910708784 18.801-.232291216 30.037.0427087842 35.28.189708784 38.092 8.92470878 57.436 11.4347088 60.425 13.9427088 63.413 33.5737088 74.729 33.5737088 74.729 34.2297088 75.275 37.8647088 78.074 37.8647088 81.744L37.8647088 89.711 59.0287088 89.736 59.0467088 82.425C59.0957088 81.074 59.3257088 79.73 59.4877088 78.384 59.9487088 76.847 59.5797088 73.942 59.3647088 72.814 56.9067088 61.845 47.8537088 55.365 46.8647088 54.599zM124.131709 18.801C123.959709 16.706 123.606709 13.395 123.012709 12.771 122.510709 12.241 122.033709 12.161 121.359709 12.399 118.747709 13.319 118.257709 16.697 117.764709 21.256 117.590709 22.844 116.601709 32.303 116.496709 32.663 118.648709 32.899 120.910709 34.77 118.929709 37.898 118.529709 38.53 117.981709 39.112 117.494709 39.716 116.713709 40.686 115.925709 41.652 115.167709 42.639 114.573709 43.414 114.010709 44.213 113.451709 45.014 113.004709 45.656 112.565709 46.305 112.154709 46.971 111.799709 47.549 111.584709 48.245 111.135709 48.733 110.131709 49.82 105.945709 52.298 105.945709 52.298 106.691709 51.48 107.500709 50.715 108.230709 49.883 109.029709 48.972 109.879709 48.441 110.631709 47.143 111.058709 46.408 117.605709 37.211 117.737709 37.189 119.835709 34.277 115.467709 33.6 114.327709 34.15 113.472709 34.472 107.747709 36.108 101.905709 44.252 101.032709 45.471 99.9927088 46.396 99.0737088 47.493 98.5077088 48.167 97.7307088 48.688 96.9837088 49.185 96.3967088 49.578 95.7307088 50.047 95.0697088 50.102 83.0537088 50.899 78.7237088 54.175 78.1767088 54.599 77.1877088 55.365 68.1357088 61.844 65.6767088 72.813 65.4607088 73.941 65.0927088 76.846 65.5537088 78.383 65.7157088 79.729 65.9467088 81.073 65.9947088 82.424L66.0127088 89.735 87.1767088 89.71 87.1767088 81.743C87.1767088 78.073 90.8117088 75.274 91.4677088 74.728 91.4677088 74.728 111.097709 63.413 113.606709 60.424 116.115709 57.435 124.849709 38.091 124.997709 35.279 125.274709 30.037 124.131709 18.801 124.131709 18.801z"/>
        <circle cx="51.155" cy="9.413" r="9.413" fill="#FAC036"/>
        <circle cx="73.888" cy="11.669" r="9.152" fill="#FAC036"/>
        <path fill="#121923" d="M73.2287088,54.228 C74.3117088,53.231 75.3347088,52.389 76.2097088,51.726 L76.3427088,51.625 C77.3627088,50.835 79.7087088,49.363 84.1337088,48.17 L83.3277088,42.621 L83.3277088,37.273 C84.3317088,39.778 85.2037088,43.117 85.9617088,47.726 C87.9407088,47.287 90.2677088,46.913 92.9847088,46.661 C90.8537088,33.547 87.5817088,27.67 80.0467088,23.05 C79.8927088,22.955 77.4077088,21.639 76.2407088,21.352 L73.9597088,23.648 L71.7497088,21.327 C71.7417088,21.329 71.7337088,21.331 71.7267088,21.332 C70.0357088,21.737 65.9497088,24.376 63.8087088,26.419 C62.0977088,24.37 60.0277088,22.676 57.4887088,21.117 C57.3307088,21.02 54.7737088,19.667 53.5727088,19.372 L51.2287088,21.732 L48.9557088,19.345 C48.9477088,19.347 48.9397088,19.348 48.9327088,19.35 C47.3157088,19.907 45.8817088,20.741 44.1797088,21.887 C37.0537088,26.679 33.9477088,33.02 31.8727088,46.645 C34.6767088,46.896 37.0707088,47.277 39.0997088,47.727 C39.8207088,43.01 40.6477088,39.498 41.5947088,36.825 L41.5947088,48.332 C41.5947088,48.343 41.5967088,48.353 41.5967088,48.365 C45.5727088,49.519 47.7397088,50.879 48.7047088,51.628 L48.8347088,51.727 C49.7127088,52.392 50.7387088,53.237 51.8247088,54.237 C54.7137088,47.77 60.2347088,46.493 61.0277088,46.302 C61.0337088,46.302 61.0397088,46.301 61.0447088,46.298 L62.5217088,47.85 L63.9987088,46.297 C64.0047088,46.3 64.0117088,46.301 64.0167088,46.301 C64.8087088,46.492 70.3407088,47.757 73.2287088,54.228 Z M62.5217088,45.944 C59.0307088,45.91 56.2107088,43.071 56.2107088,39.575 C56.2107088,36.077 59.0297088,33.239 62.5217088,33.206 C66.0117088,33.239 68.8327088,36.077 68.8327088,39.575 C68.8327088,43.071 66.0117088,45.91 62.5217088,45.944 Z"/>
      </g>
    </g>
  </g>
</svg>
