<svg xmlns="http://www.w3.org/2000/svg" width="466" height="112" viewBox="0 0 466 112">
  <path fill="#F2F2F2" d="M23.81,112 L23.81,33.844 L24.122,33.844 L51.422,112 L70.298,112 L97.598,33.064 L97.91,33.064 L97.91,112 L120.842,112 L120.842,0.616 L86.366,0.616 L61.718,77.212 L61.406,77.212 L35.354,0.616 L0.878,0.616 L0.878,112 L23.81,112 Z M221.15,112 L221.15,91.408 L166.862,91.408 L166.862,0.616 L142.37,0.616 L142.37,112 L221.15,112 Z M257.81,112 L257.81,33.844 L258.122,33.844 L285.422,112 L304.298,112 L331.598,33.064 L331.91,33.064 L331.91,112 L354.842,112 L354.842,0.616 L320.366,0.616 L295.718,77.212 L295.406,77.212 L269.354,0.616 L234.878,0.616 L234.878,112 L257.81,112 Z M428.162,112 L465.134,0.616 L439.862,0.616 L414.746,78.928 L414.434,78.928 L389.63,0.616 L364.514,0.616 L400.55,112 L428.162,112 Z"/>
</svg>
