<svg xmlns="http://www.w3.org/2000/svg" width="223" height="113" viewBox="0 0 223 113">
  <g fill="none" transform="translate(.878 .616)">
    <polygon fill="#F2F2F2" points="22.932 111.384 22.932 33.228 23.244 33.228 50.544 111.384 69.42 111.384 96.72 32.448 97.032 32.448 97.032 111.384 119.964 111.384 119.964 0 85.488 0 60.84 76.596 60.528 76.596 34.476 0 0 0 0 111.384"/>
    <polygon fill="#2AF24B" points="175.272 111.384 175.272 90.792 120.984 90.792 120.984 0 96.492 0 96.492 111.384"/>
    <polygon fill="#F22AE2" points="184.284 111.384 221.256 0 195.984 0 170.868 78.312 170.556 78.312 145.752 0 120.636 0 156.672 111.384"/>
  </g>
</svg>
