<svg xmlns="http://www.w3.org/2000/svg" width="198" height="177" viewBox="0 0 198 177">
  <defs>
    <linearGradient id="logo-mlmv.inline-a" x1="50%" x2="50%" y1="0%" y2="40.846%">
      <stop offset="0%" stop-color="#464F6B"/>
      <stop offset="100%" stop-color="#7C87A4"/>
    </linearGradient>
    <linearGradient id="logo-mlmv.inline-b" x1="50%" x2="50%" y1="0%" y2="60.509%">
      <stop offset="0%" stop-color="#464F6B"/>
      <stop offset="67.504%" stop-color="#7C87A4"/>
    </linearGradient>
    <linearGradient id="logo-mlmv.inline-c" x1="43.379%" x2="35.684%" y1="54.323%" y2="100%">
      <stop offset="0%" stop-color="#6FFFE9"/>
      <stop offset="100%" stop-color="#6B9F99"/>
    </linearGradient>
  </defs>
  <g fill="none" transform="translate(.878 .579)">
    <path fill="url(#logo-mlmv.inline-a)" d="M161,176.037154 L197,176.037154 L197,15.0371542 C197,6.75288294 190.284271,0.0371541847 182,0.0371541847 L161,0.0371541847 L161,0.0371541847 L161,176.037154 Z"/>
    <path fill="url(#logo-mlmv.inline-b)" d="M36.4594362,0.0371541847 L15,0.0371541847 C6.71572875,0.0371541847 -1.94637426e-13,6.75288294 -1.95399252e-13,15.0371542 L-1.95399252e-13,176.037154 L-1.95399252e-13,176.037154 L36.4594362,176.037154 L36.4594362,0.0371541847 Z"/>
    <path fill="#6FFFE9" d="M41.7313881,52.5413559 L84.804065,176.037154 L114.585744,176.037154 L157.658421,51.3088629 C164.87761,28.6373726 169.684912,14.4242152 172.080327,8.66939081 C174.475743,2.91456639 176.7823,0.0371541847 179,0.0371541847 L144.341922,0.0371541847 C141.715737,-0.360520454 139.382816,2.43414621 137.343157,8.42115418 C135.303499,14.4081622 123.205319,51.9570996 101.048617,121.067967 L100.556358,121.067967 C77.0969235,51.559425 64.372075,14.0104875 62.3818127,8.42115418 C60.3915504,2.83182085 58.0550212,0.0371541847 55.3722251,0.0371541847 L19,0.0371541847 C20.8636891,0.0371541847 22.9437549,2.91115336 25.2401974,8.65915171 C27.53664,14.4071501 33.0337036,29.0345514 41.7313881,52.5413559 Z"/>
    <path fill="url(#logo-mlmv.inline-c)" d="M84.804065,176.037154 L114.585744,176.037154 L157.658421,51.3088629 C164.87761,28.6373726 169.684912,14.4242152 172.080327,8.66939081 C174.475743,2.91456639 176.7823,0.0371541847 179,0.0371541847 L144.341922,0.0371541847 C141.715737,-0.360520454 139.382816,2.43414621 137.343157,8.42115418 C135.303499,14.4081622 123.205319,51.9570996 101.048617,121.067967 L84.804065,176.037154 Z"/>
    <path fill="#FAC036" d="M41.7313881,52.5413559 L84.804065,176.037154 L114.585744,176.037154 L100.556358,121.067967 C77.0969235,51.559425 64.372075,14.0104875 62.3818127,8.42115418 C60.3915504,2.83182085 58.0550212,0.0371541847 55.3722251,0.0371541847 L19,0.0371541847 C20.8636891,0.0371541847 22.9437549,2.91115336 25.2401974,8.65915171 C27.53664,14.4071501 33.0337036,29.0345514 41.7313881,52.5413559 Z"/>
  </g>
</svg>
