<svg xmlns="http://www.w3.org/2000/svg" width="314" height="113" viewBox="0 0 314 113">
  <g fill="none" transform="translate(.878 .616)">
    <polygon fill="#F2F2F2" points="22.932 111.384 22.932 33.228 23.244 33.228 50.544 111.384 69.42 111.384 96.72 32.448 97.032 32.448 97.032 111.384 119.964 111.384 119.964 0 85.488 0 60.84 76.596 60.528 76.596 34.476 0 0 0 0 111.384"/>
    <polygon fill="#F2F2F2" points="174.932 111.384 174.932 33.228 175.244 33.228 202.544 111.384 221.42 111.384 247.588 36.493 236.752 0 212.84 76.596 212.528 76.596 186.476 0 152 0 152 111.384"/>
    <polygon fill="#2AF24B" points="175.272 111.384 175.272 90.792 120.984 90.792 120.984 0 96.492 0 96.492 111.384"/>
    <polygon fill="#F22AE2" points="275.284 111.384 312.256 0 286.984 0 261.868 78.312 261.556 78.312 236.752 0 211.636 0 247.672 111.384"/>
  </g>
</svg>
