<svg xmlns="http://www.w3.org/2000/svg" width="602" height="602"><g fill="none" fill-rule="evenodd" transform="rotate(-90 301 301)"><path d="M35 37H567V569H35z"/><circle cx="301" cy="301" r="301"/><g transform="rotate(-180 237.5 238)"><path fill="#972363" d="M172 0L0 172 172 172z"/><path fill="#B42A76" d="M0 0L0 172 172 0z"/></g><g transform="rotate(-90 301 -2)"><path fill="#53A3C1" transform="rotate(-90 86 86)" d="M0 0L172 172 172 0z"/><path fill="#68C9EE" transform="rotate(-90 86 86)" d="M0 172L172 172 0 0z"/></g><g transform="rotate(-90 212.5 86.5)"><path fill="#C6756D" d="M0 0L0 172 172 172z"/><path fill="#F9CC6D" d="M0 0L172 172 172 0z"/></g></g></svg>